<svg width="16" height="16" viewBox="0 0 16 16" fill="none" xmlns="http://www.w3.org/2000/svg">
<path fill-rule="evenodd" clip-rule="evenodd" d="M4 3C2.34315 3 1 4.34315 1 6V11C1 12.6569 2.34315 14 4 14H12C13.6569 14 15 12.6569 15 11V6C15 4.34315 13.6569 3 12 3H4ZM5 5C3.89543 5 3 5.89543 3 7V10C3 11.1046 3.89543 12 5 12H11C12.1046 12 13 11.1046 13 10V7C13 5.89543 12.1046 5 11 5H5Z" fill="#222222"/>
<path d="M5 8C5 7.44772 5.44772 7 6 7C6.55228 7 7 7.44772 7 8V9C7 9.55228 6.55228 10 6 10C5.44772 10 5 9.55228 5 9V8Z" fill="#222222"/>
<path d="M9 8C9 7.44772 9.44772 7 10 7C10.5523 7 11 7.44772 11 8V9C11 9.55228 10.5523 10 10 10C9.44772 10 9 9.55228 9 9V8Z" fill="#222222"/>
<path d="M7 1C7 0.447715 7.44772 0 8 0C8.55228 0 9 0.447715 9 1V3C9 3.55228 8.55228 4 8 4C7.44772 4 7 3.55228 7 3V1Z" fill="#222222"/>
</svg>
