<svg width="16" height="16" viewBox="0 0 16 16" fill="none" xmlns="http://www.w3.org/2000/svg">
<path d="M1.00107 1.65625C1.00107 1.4375 1.00107 1.00001 1.77699 1C2.7746 0.999987 13.8592 6.68753 14.6351 7.34373C15.2558 7.86873 14.9666 8.43747 14.634 8.65627C13.8583 9.31233 2.66859 14.9966 1.77592 15C1 15 1 14.5625 1 14.3437L1.7767 9.53127C1.86514 9.00627 2.10934 8.875 2.22038 8.875L8.87112 8.21873C8.94499 8.21873 9.09279 8.175 9.09279 8C9.09279 7.825 8.94499 7.78127 8.87112 7.78127L2.22038 7.125C2.10934 7.125 1.86514 6.99373 1.7767 6.46873C1.51707 4.88243 1.00107 1.875 1.00107 1.65625Z" fill="#222222"/>
</svg>
